<?xml version="1.0" standalone="no"?>
<!DOCTYPE svg PUBLIC "-//W3C//DTD SVG 20010904//EN"
 "http://www.w3.org/TR/2001/REC-SVG-20010904/DTD/svg10.dtd">
<svg version="1.0" xmlns="http://www.w3.org/2000/svg"
 width="897.000000pt" height="796.000000pt" viewBox="0 0 897.000000 796.000000"
 preserveAspectRatio="xMidYMid meet">

<g transform="translate(0.000000,796.000000) scale(0.100000,-0.100000)"
fill="#000000" stroke="none">
<path d="M0 3980 l0 -3980 4485 0 4485 0 0 3980 0 3980 -4485 0 -4485 0 0
-3980z m4276 2287 c26 -30 32 -83 14 -117 -23 -42 -43 -45 -370 -50 -301 -5
-317 -6 -356 -27 -44 -23 -124 -107 -124 -129 0 -10 63 -13 319 -14 347 -1
368 -3 436 -57 20 -15 50 -50 67 -77 27 -41 32 -60 36 -127 4 -61 0 -90 -13
-126 -26 -68 -95 -138 -161 -163 -53 -19 -76 -20 -618 -20 l-563 0 -62 -31
c-57 -28 -121 -93 -121 -121 0 -4 298 -8 663 -8 l662 0 50 -24 c221 -102 221
-410 0 -512 l-50 -24 -751 0 c-833 0 -814 1 -892 -66 -36 -31 -72 -80 -72 -99
0 -3 382 -5 850 -5 823 0 851 -1 902 -20 109 -40 177 -143 178 -266 0 -117
-59 -207 -169 -258 -46 -21 -56 -21 -1009 -26 l-964 -5 -19 -24 c-26 -32 -24
-77 6 -106 l24 -25 949 0 c1062 0 1000 4 1088 -73 66 -58 94 -122 94 -217 0
-95 -28 -159 -95 -218 -85 -75 -46 -72 -987 -72 -465 0 -838 -4 -838 -9 0 -25
67 -91 120 -118 32 -17 92 -18 815 -23 l780 -5 51 -27 c101 -53 153 -140 154
-254 0 -114 -53 -198 -163 -256 l-42 -23 -667 -3 c-368 -1 -668 -5 -668 -8 0
-14 32 -62 57 -85 71 -67 39 -63 683 -69 568 -5 586 -6 631 -26 110 -51 169
-141 169 -258 -1 -113 -56 -206 -155 -259 -39 -21 -51 -22 -453 -25 l-413 -3
-29 30 c-32 31 -40 83 -20 122 26 47 44 49 446 49 374 0 378 0 401 22 23 21
30 67 17 102 -15 40 -31 41 -635 46 l-585 5 -75 37 c-160 79 -259 232 -259
400 0 46 5 62 24 85 l24 28 737 5 737 5 19 24 c29 36 25 94 -7 120 -26 21 -33
21 -770 21 -512 0 -759 3 -796 11 -173 37 -316 186 -349 363 -14 78 -5 119 32
150 l31 26 914 0 915 0 24 25 c33 32 35 103 4 131 -20 18 -55 19 -988 24
l-966 5 -53 29 c-54 30 -94 73 -128 136 -28 53 -26 171 4 230 33 63 79 109
137 136 l50 24 948 0 c1007 0 993 -1 1011 45 13 35 6 82 -15 101 -20 18 -54
19 -944 24 l-923 5 -26 24 c-34 32 -41 75 -26 158 28 160 142 297 295 355 l60
23 770 3 770 3 22 21 c30 28 31 83 1 115 l-21 23 -715 0 c-778 0 -765 -1 -791
56 -26 59 -2 192 52 283 38 63 113 134 177 166 106 54 124 55 718 55 541 0
550 0 576 21 34 27 37 98 5 127 -31 30 -75 33 -450 32 -312 -2 -350 0 -373 15
-33 22 -40 49 -34 135 13 183 175 362 360 400 24 4 184 7 356 7 l314 -2 24
-28z m556 4 c27 -24 33 -36 33 -71 0 -35 -6 -47 -33 -71 -31 -28 -37 -29 -128
-29 -96 0 -96 0 -130 34 -37 37 -43 73 -20 115 22 40 54 50 153 51 88 0 94 -1
125 -29z m690 0 c27 -24 33 -36 33 -71 0 -35 -6 -47 -33 -71 l-32 -29 -185 0
c-111 0 -194 4 -208 11 -49 22 -70 90 -43 138 25 46 48 50 248 51 l188 0 32
-29z m-682 -546 c37 -19 50 -43 50 -90 0 -31 -9 -46 -62 -101 l-61 -64 61 -64
c56 -58 62 -69 62 -106 0 -57 -42 -100 -96 -100 -35 0 -47 9 -151 113 -109
109 -113 114 -113 156 0 42 5 48 93 139 130 133 157 148 217 117z m913 6 c29
-11 227 -214 233 -238 12 -46 -8 -79 -109 -180 -59 -59 -114 -104 -129 -108
-77 -19 -142 46 -124 121 4 15 32 53 63 86 l57 59 -51 52 c-63 65 -76 90 -69
131 12 61 75 99 129 77z m-332 -80 c31 -32 38 -75 17 -114 -19 -36 -184 -261
-204 -278 -67 -57 -178 7 -159 91 7 30 191 293 222 316 10 7 35 14 56 14 29 0
45 -7 68 -29z m-637 -840 c47 -44 43 -112 -8 -153 -24 -20 -154 -25 -187 -8
-23 13 -49 61 -49 93 0 29 34 75 64 88 11 5 51 8 88 6 55 -2 72 -7 92 -26z
m876 16 c14 -7 34 -28 44 -48 23 -43 16 -80 -21 -115 l-26 -24 -299 0 -300 0
-29 29 c-22 23 -29 39 -29 68 1 44 15 66 56 88 39 20 564 22 604 2z m931 -25
c39 -44 39 -89 0 -131 l-29 -31 -297 0 c-184 0 -304 4 -316 10 -23 13 -49 61
-49 93 0 29 34 75 64 87 11 5 151 8 309 7 l289 -2 29 -33z m-1250 -541 l29
-29 0 -226 c0 -223 0 -225 -24 -253 -20 -23 -32 -28 -71 -28 -39 0 -51 5 -70
27 -32 37 -38 86 -33 298 l3 182 33 29 c44 40 93 40 133 0z m951 0 l33 -29 3
-181 c3 -100 1 -202 -3 -228 -14 -96 -104 -136 -166 -74 l-29 29 0 230 0 230
31 26 c42 36 89 35 131 -3z m-1297 -75 c51 -22 65 -58 65 -176 0 -148 -23
-190 -105 -190 -27 0 -44 8 -66 29 -29 29 -29 30 -29 154 0 120 1 127 25 156
14 16 36 32 48 34 12 2 23 5 25 6 1 0 18 -5 37 -13z m645 -33 c41 -24 50 -52
50 -153 0 -85 -2 -92 -29 -122 -33 -37 -82 -43 -125 -14 -39 25 -48 59 -44
159 3 86 4 90 36 118 37 33 71 37 112 12z m950 2 c43 -22 50 -43 50 -152 0
-78 -4 -102 -18 -119 -41 -52 -109 -55 -153 -8 -22 24 -24 33 -24 131 l0 105
33 29 c36 32 69 36 112 14z m-1877 -85 c50 -56 27 -135 -48 -160 -87 -29 -161
81 -104 154 43 54 105 57 152 6z m1262 10 c21 -18 38 -68 31 -96 -19 -75 -111
-100 -167 -45 -21 21 -29 39 -29 64 0 41 39 94 73 99 26 4 74 -7 92 -22z m957
-8 c40 -35 27 -126 -21 -152 -65 -34 -151 14 -151 83 0 90 102 131 172 69z
m-1678 -728 c20 -21 26 -37 26 -69 0 -54 -23 -83 -75 -95 -54 -13 -541 -12
-586 0 -52 15 -74 43 -74 97 0 37 5 49 28 69 l28 24 313 0 313 0 27 -26z m594
-9 c36 -30 45 -69 27 -112 -23 -56 -57 -65 -225 -61 -129 3 -151 5 -169 22
-46 42 -43 117 6 156 23 18 41 20 179 20 148 0 153 -1 182 -25z m577 13 c29
-13 55 -55 55 -88 0 -33 -26 -75 -55 -88 -16 -7 -78 -12 -165 -12 -152 0 -183
8 -206 51 -26 51 -10 109 37 135 32 18 297 19 334 2z m-1476 -554 c26 -22 31
-33 31 -71 0 -48 -10 -61 -99 -134 l-43 -35 53 -44 c77 -62 89 -79 89 -126 0
-58 -36 -94 -96 -94 -39 0 -51 7 -163 101 -180 151 -181 175 -19 309 56 47
113 93 127 102 38 26 84 23 120 -8z m482 -3 l29 -29 0 -206 0 -206 -28 -31
c-47 -53 -130 -39 -158 26 -17 42 -20 368 -3 412 25 68 108 85 160 34z m366 5
l28 -24 3 -210 3 -209 -25 -30 c-30 -35 -72 -45 -115 -27 -54 23 -61 52 -61
259 0 195 7 230 47 254 33 19 90 13 120 -13z m473 7 c35 -23 212 -175 227
-193 21 -26 25 -67 10 -97 -18 -34 -235 -215 -269 -224 -42 -11 -91 12 -110
51 -30 62 -12 94 105 192 l29 23 -63 50 c-84 68 -102 116 -64 176 25 40 93 51
135 22z m-1565 -916 c36 -30 43 -91 16 -134 -49 -78 -181 -37 -181 57 0 28 26
77 47 89 32 18 90 13 118 -12z m927 -6 c44 -39 46 -98 5 -138 l-27 -28 -292
-3 c-307 -3 -334 0 -363 42 -26 36 -19 94 14 127 l29 29 301 0 301 0 32 -29z"/>
</g>
</svg>
